<svg width="22" height="22" viewBox="0 0 22 22" fill="none" xmlns="http://www.w3.org/2000/svg">
    <path fill-rule="evenodd" clip-rule="evenodd"
          d="M7.33334 1.14587C7.71304 1.14587 8.02084 1.45368 8.02084 1.83337V4.58337C8.02084 4.96307 7.71304 5.27087 7.33334 5.27087C6.95365 5.27087 6.64584 4.96307 6.64584 4.58337V1.83337C6.64584 1.45368 6.95365 1.14587 7.33334 1.14587Z"
          fill="#8B4CFC"/>
    <path fill-rule="evenodd" clip-rule="evenodd"
          d="M14.6667 1.14587C15.0464 1.14587 15.3542 1.45368 15.3542 1.83337V4.58337C15.3542 4.96307 15.0464 5.27087 14.6667 5.27087C14.287 5.27087 13.9792 4.96307 13.9792 4.58337V1.83337C13.9792 1.45368 14.287 1.14587 14.6667 1.14587Z"
          fill="#8B4CFC"/>
    <path fill-rule="evenodd" clip-rule="evenodd"
          d="M2.52084 8.33252C2.52084 7.95282 2.82865 7.64502 3.20834 7.64502H18.7917C19.1714 7.64502 19.4792 7.95282 19.4792 8.33252C19.4792 8.71222 19.1714 9.02002 18.7917 9.02002H3.20834C2.82865 9.02002 2.52084 8.71222 2.52084 8.33252Z"
          fill="#8B4CFC"/>
    <path fill-rule="evenodd" clip-rule="evenodd"
          d="M4.34234 4.9366C3.755 5.56912 3.4375 6.5221 3.4375 7.79171V15.5834C3.4375 16.853 3.755 17.806 4.34234 18.4385C4.92111 19.0618 5.8602 19.4792 7.33333 19.4792H14.6667C16.1398 19.4792 17.0789 19.0618 17.6577 18.4385C18.245 17.806 18.5625 16.853 18.5625 15.5834V7.79171C18.5625 6.5221 18.245 5.56912 17.6577 4.9366C17.0789 4.31331 16.1398 3.89587 14.6667 3.89587H7.33333C5.8602 3.89587 4.92111 4.31331 4.34234 4.9366ZM3.33475 4.00098C4.24556 3.0201 5.59813 2.52087 7.33333 2.52087H14.6667C16.4019 2.52087 17.7544 3.0201 18.6653 4.00098C19.5675 4.97263 19.9375 6.31132 19.9375 7.79171V15.5834C19.9375 17.0638 19.5675 18.4024 18.6653 19.3741C17.7544 20.355 16.4019 20.8542 14.6667 20.8542H7.33333C5.59813 20.8542 4.24556 20.355 3.33475 19.3741C2.4325 18.4024 2.0625 17.0638 2.0625 15.5834V7.79171C2.0625 6.31132 2.4325 4.97263 3.33475 4.00098Z"
          fill="#8B4CFC"/>
    <path fill-rule="evenodd" clip-rule="evenodd"
          d="M13.4702 12.5584C13.4702 12.0521 13.8806 11.6417 14.3868 11.6417H14.3951C14.9013 11.6417 15.3117 12.0521 15.3117 12.5584C15.3117 13.0647 14.9013 13.4751 14.3951 13.4751H14.3868C13.8806 13.4751 13.4702 13.0647 13.4702 12.5584Z"
          fill="#8B4CFC"/>
    <path fill-rule="evenodd" clip-rule="evenodd"
          d="M13.4702 15.3084C13.4702 14.8021 13.8806 14.3917 14.3868 14.3917H14.3951C14.9013 14.3917 15.3117 14.8021 15.3117 15.3084C15.3117 15.8147 14.9013 16.2251 14.3951 16.2251H14.3868C13.8806 16.2251 13.4702 15.8147 13.4702 15.3084Z"
          fill="#8B4CFC"/>
    <path fill-rule="evenodd" clip-rule="evenodd"
          d="M10.0792 12.5584C10.0792 12.0521 10.4896 11.6417 10.9959 11.6417H11.0041C11.5104 11.6417 11.9208 12.0521 11.9208 12.5584C11.9208 13.0647 11.5104 13.4751 11.0041 13.4751H10.9959C10.4896 13.4751 10.0792 13.0647 10.0792 12.5584Z"
          fill="#8B4CFC"/>
    <path fill-rule="evenodd" clip-rule="evenodd"
          d="M10.0792 15.3084C10.0792 14.8021 10.4896 14.3917 10.9959 14.3917H11.0041C11.5104 14.3917 11.9208 14.8021 11.9208 15.3084C11.9208 15.8147 11.5104 16.2251 11.0041 16.2251H10.9959C10.4896 16.2251 10.0792 15.8147 10.0792 15.3084Z"
          fill="#8B4CFC"/>
    <path fill-rule="evenodd" clip-rule="evenodd"
          d="M6.68646 12.5584C6.68646 12.0521 7.09687 11.6417 7.60313 11.6417H7.61136C8.11762 11.6417 8.52803 12.0521 8.52803 12.5584C8.52803 13.0647 8.11762 13.4751 7.61136 13.4751H7.60313C7.09687 13.4751 6.68646 13.0647 6.68646 12.5584Z"
          fill="#8B4CFC"/>
    <path fill-rule="evenodd" clip-rule="evenodd"
          d="M6.68646 15.3084C6.68646 14.8021 7.09687 14.3917 7.60313 14.3917H7.61136C8.11762 14.3917 8.52803 14.8021 8.52803 15.3084C8.52803 15.8147 8.11762 16.2251 7.61136 16.2251H7.60313C7.09687 16.2251 6.68646 15.8147 6.68646 15.3084Z"
          fill="#8B4CFC"/>
</svg>
