<svg width="147" height="132" viewBox="0 0 147 132" fill="none" xmlns="http://www.w3.org/2000/svg">
<path d="M41.6414 39.6934C39.6883 41.373 37.5008 42.6621 35.0789 43.5605C32.657 44.459 30.1473 44.9082 27.5496 44.9082C25.5574 44.9082 23.6336 44.6445 21.7781 44.1172C19.9422 43.6094 18.2137 42.8867 16.5926 41.9492C14.991 40.9922 13.5262 39.8496 12.198 38.5215C10.8699 37.1934 9.72734 35.7285 8.77031 34.127C7.83281 32.5059 7.10039 30.7773 6.57304 28.9414C6.06523 27.0859 5.81133 25.1621 5.81133 23.1699C5.81133 21.1777 6.06523 19.2539 6.57304 17.3984C7.10039 15.543 7.83281 13.8145 8.77031 12.2129C9.72734 10.5918 10.8699 9.11719 12.198 7.78906C13.5262 6.46094 14.991 5.32812 16.5926 4.39062C18.2137 3.43359 19.9422 2.70117 21.7781 2.19336C23.6336 1.66602 25.5574 1.40234 27.5496 1.40234C30.1473 1.40234 32.657 1.85156 35.0789 2.75C37.5008 3.62891 39.6883 4.91797 41.6414 6.61719L37.1883 13.9414C35.9578 12.6133 34.5027 11.5977 32.823 10.8945C31.1434 10.1719 29.3855 9.81055 27.5496 9.81055C25.6941 9.81055 23.9559 10.1621 22.3348 10.8652C20.7137 11.5684 19.2977 12.5254 18.0867 13.7363C16.8758 14.9277 15.9187 16.3438 15.2156 17.9844C14.5125 19.6055 14.1609 21.334 14.1609 23.1699C14.1609 25.0059 14.5125 26.7344 15.2156 28.3555C15.9187 29.957 16.8758 31.3633 18.0867 32.5742C19.2977 33.7852 20.7137 34.7422 22.3348 35.4453C23.9559 36.1484 25.6941 36.5 27.5496 36.5C29.3855 36.5 31.1434 36.1484 32.823 35.4453C34.5027 34.7227 35.9578 33.6973 37.1883 32.3691L41.6414 39.6934ZM54.8824 44H46.8844V0.142578H54.8824V14C55.8395 13.2773 56.8258 12.7695 57.8414 12.4766C58.857 12.1641 59.8922 12.0078 60.9469 12.0078C62.8805 12.0078 64.6969 12.3789 66.3961 13.1211C68.0953 13.8438 69.5699 14.8496 70.8199 16.1387C72.0895 17.4082 73.0855 18.9023 73.8082 20.6211C74.5504 22.3203 74.9215 24.1367 74.9215 26.0703V44H66.8648V26.0703H66.9234C66.9234 25.25 66.7672 24.4785 66.4547 23.7559C66.1422 23.0137 65.7125 22.3691 65.1656 21.8223C64.6187 21.2754 63.984 20.8457 63.2613 20.5332C62.5387 20.2207 61.7672 20.0645 60.9469 20.0645C60.107 20.0645 59.316 20.2207 58.5738 20.5332C57.8316 20.8457 57.1871 21.2754 56.6402 21.8223C56.0934 22.3691 55.6637 23.0137 55.3512 23.7559C55.0387 24.4785 54.8824 25.25 54.8824 26.0703V44ZM112.215 44H110.282L107.176 39.6934C106.414 40.377 105.604 41.0215 104.745 41.627C103.905 42.2129 103.016 42.7305 102.079 43.1797C101.141 43.6094 100.174 43.9512 99.1781 44.2051C98.2016 44.459 97.2055 44.5859 96.1898 44.5859C93.9828 44.5859 91.9027 44.2148 89.9496 43.4727C88.016 42.7305 86.3168 41.6562 84.852 40.25C83.4066 38.8242 82.2641 37.0859 81.4242 35.0352C80.5844 32.9844 80.1645 30.6504 80.1645 28.0332C80.1645 25.5918 80.5844 23.3555 81.4242 21.3242C82.2641 19.2734 83.4066 17.5156 84.852 16.0508C86.3168 14.5859 88.016 13.4531 89.9496 12.6523C91.9027 11.832 93.9828 11.4219 96.1898 11.4219C97.2055 11.4219 98.2113 11.5488 99.2074 11.8027C100.204 12.0566 101.17 12.4082 102.108 12.8574C103.045 13.3066 103.934 13.834 104.774 14.4395C105.633 15.0449 106.434 15.6992 107.176 16.4023L110.282 12.6816H112.215V44ZM104.159 28.0332C104.159 26.9395 103.944 25.8848 103.514 24.8691C103.104 23.834 102.537 22.9258 101.815 22.1445C101.092 21.3438 100.243 20.709 99.266 20.2402C98.309 19.752 97.2836 19.5078 96.1898 19.5078C95.0961 19.5078 94.0609 19.6934 93.0844 20.0645C92.1273 20.4355 91.2875 20.9824 90.5648 21.7051C89.8617 22.4277 89.3051 23.3262 88.8949 24.4004C88.4848 25.4551 88.2797 26.666 88.2797 28.0332C88.2797 29.4004 88.4848 30.6211 88.8949 31.6953C89.3051 32.75 89.8617 33.6387 90.5648 34.3613C91.2875 35.084 92.1273 35.6309 93.0844 36.002C94.0609 36.373 95.0961 36.5586 96.1898 36.5586C97.2836 36.5586 98.309 36.3242 99.266 35.8555C100.243 35.3672 101.092 34.7324 101.815 33.9512C102.537 33.1504 103.104 32.2422 103.514 31.2266C103.944 30.1914 104.159 29.127 104.159 28.0332ZM135.271 44C133.337 44 131.521 43.6387 129.821 42.916C128.122 42.1738 126.628 41.168 125.339 39.8984C124.07 38.6094 123.064 37.1152 122.321 35.416C121.599 33.7168 121.237 31.9004 121.237 29.9668V20.6504H117.341V12.6816H121.237V0.142578H129.206V12.6816H141.335V20.6504H129.206V29.9668C129.206 30.8066 129.362 31.5977 129.675 32.3398C129.987 33.0625 130.417 33.6973 130.964 34.2441C131.511 34.791 132.155 35.2305 132.898 35.5625C133.64 35.875 134.431 36.0312 135.271 36.0312H141.335V44H135.271ZM34.4789 97.9941C34.4789 99.9277 34.225 101.793 33.7172 103.59C33.2289 105.367 32.5258 107.037 31.6078 108.6C30.6898 110.143 29.5961 111.559 28.3266 112.848C27.057 114.117 25.641 115.211 24.0785 116.129C22.516 117.047 20.8363 117.76 19.0395 118.268C17.2621 118.756 15.4066 119 13.473 119H0.816795V76.9883H13.473C15.4066 76.9883 17.2621 77.2422 19.0395 77.75C20.8363 78.2383 22.516 78.9414 24.0785 79.8594C25.641 80.7773 27.057 81.8809 28.3266 83.1699C29.5961 84.4395 30.6898 85.8555 31.6078 87.418C32.5258 88.9609 33.2289 90.6309 33.7172 92.4277C34.225 94.2051 34.4789 96.0605 34.4789 97.9941ZM26.0707 97.9941C26.0707 96.2559 25.7387 94.625 25.0746 93.1016C24.4301 91.5781 23.5316 90.25 22.3793 89.1172C21.2465 87.9648 19.9086 87.0566 18.3656 86.3926C16.8422 85.7285 15.2113 85.3965 13.473 85.3965H9.28359V110.592H13.473C15.2113 110.592 16.8422 110.27 18.3656 109.625C19.9086 108.961 21.2465 108.062 22.3793 106.93C23.5316 105.777 24.4301 104.439 25.0746 102.916C25.7387 101.373 26.0707 99.7324 26.0707 97.9941ZM49.8586 79.0977C49.8586 79.8398 49.7121 80.5332 49.4191 81.1777C49.1457 81.8223 48.7648 82.3887 48.2766 82.877C47.7883 83.3457 47.2121 83.7266 46.548 84.0195C45.9035 84.293 45.2102 84.4297 44.468 84.4297C43.7258 84.4297 43.0227 84.293 42.3586 84.0195C41.7141 83.7266 41.1477 83.3457 40.6594 82.877C40.1906 82.3887 39.8098 81.8223 39.5168 81.1777C39.2434 80.5332 39.1066 79.8398 39.1066 79.0977C39.1066 78.375 39.2434 77.6914 39.5168 77.0469C39.8098 76.3828 40.1906 75.8164 40.6594 75.3477C41.1477 74.8594 41.7141 74.4785 42.3586 74.2051C43.0227 73.9121 43.7258 73.7656 44.468 73.7656C45.2102 73.7656 45.9035 73.9121 46.548 74.2051C47.2121 74.4785 47.7883 74.8594 48.2766 75.3477C48.7648 75.8164 49.1457 76.3828 49.4191 77.0469C49.7121 77.6914 49.8586 78.375 49.8586 79.0977ZM48.4816 119H40.425V87.623H48.4816V119ZM86.1855 119H84.252L81.1465 114.693C80.3848 115.377 79.5742 116.021 78.7148 116.627C77.875 117.213 76.9863 117.73 76.0488 118.18C75.1113 118.609 74.1445 118.951 73.1484 119.205C72.1719 119.459 71.1758 119.586 70.1602 119.586C67.9531 119.586 65.873 119.215 63.9199 118.473C61.9863 117.73 60.2871 116.656 58.8223 115.25C57.377 113.824 56.2344 112.086 55.3945 110.035C54.5547 107.984 54.1348 105.65 54.1348 103.033C54.1348 100.592 54.5547 98.3555 55.3945 96.3242C56.2344 94.2734 57.377 92.5156 58.8223 91.0508C60.2871 89.5859 61.9863 88.4531 63.9199 87.6523C65.873 86.832 67.9531 86.4219 70.1602 86.4219C71.1758 86.4219 72.1816 86.5488 73.1777 86.8027C74.1738 87.0566 75.1406 87.4082 76.0781 87.8574C77.0156 88.3066 77.9043 88.834 78.7441 89.4395C79.6035 90.0449 80.4043 90.6992 81.1465 91.4023L84.252 87.6816H86.1855V119ZM78.1289 103.033C78.1289 101.939 77.9141 100.885 77.4844 99.8691C77.0742 98.834 76.5078 97.9258 75.7852 97.1445C75.0625 96.3438 74.2129 95.709 73.2363 95.2402C72.2793 94.752 71.2539 94.5078 70.1602 94.5078C69.0664 94.5078 68.0312 94.6934 67.0547 95.0645C66.0977 95.4355 65.2578 95.9824 64.5352 96.7051C63.832 97.4277 63.2754 98.3262 62.8652 99.4004C62.4551 100.455 62.25 101.666 62.25 103.033C62.25 104.4 62.4551 105.621 62.8652 106.695C63.2754 107.75 63.832 108.639 64.5352 109.361C65.2578 110.084 66.0977 110.631 67.0547 111.002C68.0312 111.373 69.0664 111.559 70.1602 111.559C71.2539 111.559 72.2793 111.324 73.2363 110.855C74.2129 110.367 75.0625 109.732 75.7852 108.951C76.5078 108.15 77.0742 107.242 77.4844 106.227C77.9141 105.191 78.1289 104.127 78.1289 103.033ZM101.507 119H93.5086V87.623H95.4422L98.0789 91.3438C99.368 90.1719 100.833 89.2734 102.473 88.6484C104.114 88.0039 105.813 87.6816 107.571 87.6816H114.632V95.6504H107.571C106.731 95.6504 105.94 95.8066 105.198 96.1191C104.456 96.4316 103.811 96.8613 103.264 97.4082C102.718 97.9551 102.288 98.5996 101.975 99.3418C101.663 100.084 101.507 100.875 101.507 101.715V119ZM126.877 130.953V122.896L131.33 122.955C132.111 122.955 132.863 122.828 133.586 122.574C134.308 122.32 134.972 121.969 135.578 121.52C136.203 121.07 136.75 120.533 137.218 119.908C137.687 119.303 138.068 118.639 138.361 117.916C137.482 118.287 136.584 118.658 135.666 119.029C134.767 119.4 133.859 119.586 132.941 119.586C131.007 119.586 129.191 119.244 127.492 118.561C125.793 117.877 124.298 116.91 123.009 115.66C121.74 114.391 120.734 112.857 119.992 111.061C119.269 109.244 118.908 107.213 118.908 104.967V87.623H126.877V104.967C126.877 106.08 127.033 107.057 127.345 107.896C127.677 108.717 128.117 109.41 128.664 109.977C129.211 110.523 129.845 110.934 130.568 111.207C131.31 111.48 132.101 111.617 132.941 111.617C133.761 111.617 134.533 111.432 135.255 111.061C135.998 110.67 136.642 110.162 137.189 109.537C137.736 108.912 138.166 108.209 138.478 107.428C138.791 106.627 138.947 105.807 138.947 104.967V87.623H147.004V115.045C146.984 117.252 146.554 119.322 145.714 121.256C144.875 123.189 143.722 124.879 142.257 126.324C140.812 127.77 139.123 128.912 137.189 129.752C135.255 130.592 133.185 131.012 130.978 131.012L126.877 130.953Z" fill="black"/>
</svg>
