<svg width="25" height="25" viewBox="0 0 25 25" fill="none" xmlns="http://www.w3.org/2000/svg">
<g clip-path="url(#clip0_20_3978)">
<path d="M7.41199 18.8702C7.15088 18.8702 6.93196 18.7819 6.75522 18.6054C6.57866 18.4288 6.49038 18.21 6.49038 17.9489V16.3864H19.381L19.7115 16.7168V7.29183H21.274C21.5351 7.29183 21.7539 7.38011 21.9305 7.55667C22.1072 7.73341 22.1956 7.95225 22.1956 8.21318V22.5562L18.5097 18.8702H7.41199ZM2.80444 17.989V4.56761C2.80444 4.3065 2.89281 4.08758 3.06955 3.91084C3.24611 3.73428 3.46495 3.646 3.72606 3.646H16.7068C16.9679 3.646 17.1867 3.73428 17.3633 3.91084C17.5399 4.08758 17.6281 4.3065 17.6281 4.56761V13.3817C17.6281 13.6426 17.5399 13.8614 17.3633 14.0382C17.1867 14.2147 16.9679 14.303 16.7068 14.303H6.49038L2.80444 17.989ZM16.0656 12.7405V5.2085H4.36694V13.4619L5.0883 12.7405H16.0656Z" fill="#8B4CFC"/>
</g>
<defs>
<clipPath id="clip0_20_3978">
<rect width="25" height="25" fill="white"/>
</clipPath>
</defs>
</svg>
