<svg width="24" height="27" viewBox="0 0 24 27" fill="none" xmlns="http://www.w3.org/2000/svg">
<path d="M10.73 6.27707C11.1516 6.22525 11.5756 6.19942 12 6.19971C16.664 6.19971 20.4 9.27593 22 13.6174C21.6127 14.6735 21.0894 15.6677 20.445 16.5718M6.52 7.80935C4.48 9.12864 2.9 11.1727 2 13.6174C3.6 17.9589 7.336 21.0351 12 21.0351C13.9321 21.0459 15.8292 20.4883 17.48 19.4244M9.88 11.3709C9.6014 11.6661 9.3804 12.0166 9.22963 12.4023C9.07885 12.7881 9.00125 13.2015 9.00125 13.619C9.00125 14.0365 9.07885 14.4499 9.22963 14.8357C9.3804 15.2214 9.6014 15.5719 9.88 15.8671C10.1586 16.1623 10.4893 16.3965 10.8534 16.5563C11.2174 16.716 11.6075 16.7983 12.0015 16.7983C12.3955 16.7983 12.7856 16.716 13.1496 16.5563C13.5137 16.3965 13.8444 16.1623 14.123 15.8671" stroke="black" stroke-opacity="0.5" stroke-width="2.5" stroke-linecap="round" stroke-linejoin="round"/>
<path d="M4 5.14014L20 22.0949" stroke="black" stroke-opacity="0.5" stroke-width="2.5" stroke-linecap="round"/>
</svg>
