<svg width="114" height="30" viewBox="0 0 114 30" fill="none" xmlns="http://www.w3.org/2000/svg">
<path d="M20.3398 29H0.730469V0.992188H6.33594V23.3945H20.3398V29ZM49.7344 15.1133C49.7344 16.4414 49.5586 17.724 49.207 18.9609C48.8685 20.1849 48.3867 21.3372 47.7617 22.418C47.1367 23.4857 46.3815 24.4622 45.4961 25.3477C44.6107 26.2331 43.6341 26.9948 42.5664 27.6328C41.4987 28.2578 40.3464 28.7396 39.1094 29.0781C37.8724 29.4297 36.5898 29.6055 35.2617 29.6055C33.9336 29.6055 32.651 29.4297 31.4141 29.0781C30.1901 28.7396 29.0378 28.2578 27.957 27.6328C26.8893 26.9948 25.9128 26.2331 25.0273 25.3477C24.1419 24.4622 23.3802 23.4857 22.7422 22.418C22.1172 21.3372 21.6289 20.1849 21.2773 18.9609C20.9388 17.724 20.7695 16.4414 20.7695 15.1133C20.7695 13.7852 20.9388 12.5026 21.2773 11.2656C21.6289 10.0286 22.1172 8.8763 22.7422 7.80859C23.3802 6.74089 24.1419 5.76432 25.0273 4.87891C25.9128 3.99349 26.8893 3.23828 27.957 2.61328C29.0378 1.98828 30.1901 1.50651 31.4141 1.16797C32.651 0.816406 33.9336 0.640625 35.2617 0.640625C36.5898 0.640625 37.8724 0.816406 39.1094 1.16797C40.3464 1.50651 41.4987 1.98828 42.5664 2.61328C43.6341 3.23828 44.6107 3.99349 45.4961 4.87891C46.3815 5.76432 47.1367 6.74089 47.7617 7.80859C48.3867 8.8763 48.8685 10.0286 49.207 11.2656C49.5586 12.5026 49.7344 13.7852 49.7344 15.1133ZM44.168 15.1133C44.168 13.8893 43.9336 12.737 43.4648 11.6562C42.9961 10.5625 42.3581 9.61849 41.5508 8.82422C40.7565 8.01693 39.8125 7.37891 38.7188 6.91016C37.638 6.44141 36.4857 6.20703 35.2617 6.20703C34.0247 6.20703 32.8659 6.44141 31.7852 6.91016C30.7044 7.37891 29.7604 8.01693 28.9531 8.82422C28.1458 9.61849 27.5078 10.5625 27.0391 11.6562C26.5703 12.737 26.3359 13.8893 26.3359 15.1133C26.3359 16.3372 26.5703 17.4896 27.0391 18.5703C27.5078 19.638 28.1458 20.5755 28.9531 21.3828C29.7604 22.1901 30.7044 22.8281 31.7852 23.2969C32.8659 23.7656 34.0247 24 35.2617 24C36.4857 24 37.638 23.7656 38.7188 23.2969C39.8125 22.8281 40.7565 22.1901 41.5508 21.3828C42.3581 20.5755 42.9961 19.638 43.4648 18.5703C43.9336 17.4896 44.168 16.3372 44.168 15.1133ZM75.7109 26.168C74.4089 27.2747 72.957 28.1276 71.3555 28.7266C69.7539 29.3125 68.0872 29.6055 66.3555 29.6055C65.0273 29.6055 63.7448 29.4297 62.5078 29.0781C61.2839 28.7396 60.138 28.2578 59.0703 27.6328C58.0026 26.9948 57.026 26.2396 56.1406 25.3672C55.2552 24.4818 54.5 23.5052 53.875 22.4375C53.25 21.3568 52.7617 20.1979 52.4102 18.9609C52.0716 17.724 51.9023 16.4414 51.9023 15.1133C51.9023 13.7852 52.0716 12.5091 52.4102 11.2852C52.7617 10.0612 53.25 8.91536 53.875 7.84766C54.5 6.76693 55.2552 5.79036 56.1406 4.91797C57.026 4.03255 58.0026 3.27734 59.0703 2.65234C60.138 2.02734 61.2839 1.54557 62.5078 1.20703C63.7448 0.855469 65.0273 0.679688 66.3555 0.679688C68.0872 0.679688 69.7539 0.979167 71.3555 1.57812C72.957 2.16406 74.4089 3.01042 75.7109 4.11719L72.7812 9C71.9349 8.14062 70.9583 7.47005 69.8516 6.98828C68.7448 6.49349 67.5794 6.24609 66.3555 6.24609C65.1315 6.24609 63.9792 6.48047 62.8984 6.94922C61.8307 7.41797 60.8932 8.05599 60.0859 8.86328C59.2786 9.65755 58.6406 10.5951 58.1719 11.6758C57.7031 12.7435 57.4688 13.8893 57.4688 15.1133C57.4688 16.3503 57.7031 17.5091 58.1719 18.5898C58.6406 19.6706 59.2786 20.6146 60.0859 21.4219C60.8932 22.2292 61.8307 22.8672 62.8984 23.3359C63.9792 23.8047 65.1315 24.0391 66.3555 24.0391C67.0586 24.0391 67.7422 23.9544 68.4062 23.7852C69.0703 23.6159 69.7018 23.3815 70.3008 23.082V15.1133H75.7109V26.168ZM85.6328 29H80.0273V0.992188H85.6328V29ZM113.25 29H107.254L96.4531 10.5625V29H90.8477V0.992188H96.8438L107.645 19.4492V0.992188H113.25V29Z" fill="black"/>
</svg>
