<svg width="18" height="18" viewBox="0 0 18 18" fill="none" xmlns="http://www.w3.org/2000/svg">
<path d="M15.07 5.50989L6.51002 1.22989C0.76002 -1.65011 -1.59998 0.70989 1.28002 6.45989L2.15002 8.19989C2.40002 8.70989 2.40002 9.29989 2.15002 9.80989L1.28002 11.5399C-1.59998 17.2899 0.75002 19.6499 6.51002 16.7699L15.07 12.4899C18.91 10.5699 18.91 7.42989 15.07 5.50989ZM11.84 9.74989H6.44002C6.03002 9.74989 5.69002 9.40989 5.69002 8.99989C5.69002 8.58989 6.03002 8.24989 6.44002 8.24989H11.84C12.25 8.24989 12.59 8.58989 12.59 8.99989C12.59 9.40989 12.25 9.74989 11.84 9.74989Z" fill="#8B4CFC"/>
</svg>
