<svg width="125" height="30" viewBox="0 0 125 30" fill="none" xmlns="http://www.w3.org/2000/svg">
<path d="M-0.0078125 9.39062C-0.0078125 8.23177 0.213542 7.14453 0.65625 6.12891C1.09896 5.11328 1.69792 4.22786 2.45312 3.47266C3.22135 2.70443 4.11328 2.09896 5.12891 1.65625C6.14453 1.21354 7.23177 0.992188 8.39062 0.992188H21.2422V6.59766H8.39062C8 6.59766 7.63542 6.66927 7.29688 6.8125C6.95833 6.95573 6.65885 7.15755 6.39844 7.41797C6.15104 7.66536 5.95573 7.95833 5.8125 8.29688C5.66927 8.63542 5.59766 9 5.59766 9.39062C5.59766 9.78125 5.66927 10.1523 5.8125 10.5039C5.95573 10.8424 6.15104 11.1419 6.39844 11.4023C6.65885 11.6497 6.95833 11.8451 7.29688 11.9883C7.63542 12.1315 8 12.2031 8.39062 12.2031H13.9961C15.1549 12.2031 16.2422 12.4245 17.2578 12.8672C18.2865 13.2969 19.1784 13.8958 19.9336 14.6641C20.7018 15.4193 21.3008 16.3112 21.7305 17.3398C22.1732 18.3555 22.3945 19.4427 22.3945 20.6016C22.3945 21.7604 22.1732 22.8477 21.7305 23.8633C21.3008 24.8789 20.7018 25.7708 19.9336 26.5391C19.1784 27.2943 18.2865 27.8932 17.2578 28.3359C16.2422 28.7786 15.1549 29 13.9961 29H1.55469V23.3945H13.9961C14.3867 23.3945 14.7513 23.3229 15.0898 23.1797C15.4284 23.0365 15.7214 22.8411 15.9688 22.5938C16.2292 22.3333 16.431 22.0339 16.5742 21.6953C16.7174 21.3568 16.7891 20.9922 16.7891 20.6016C16.7891 20.2109 16.7174 19.8464 16.5742 19.5078C16.431 19.1693 16.2292 18.8763 15.9688 18.6289C15.7214 18.3685 15.4284 18.1667 15.0898 18.0234C14.7513 17.8802 14.3867 17.8086 13.9961 17.8086H8.39062C7.23177 17.8086 6.14453 17.5872 5.12891 17.1445C4.11328 16.7018 3.22135 16.1029 2.45312 15.3477C1.69792 14.5794 1.09896 13.6875 0.65625 12.6719C0.213542 11.6432 -0.0078125 10.5495 -0.0078125 9.39062ZM31.6914 29H26.0859V0.992188H31.6914V29ZM59.1914 26.168C57.8893 27.2747 56.4375 28.1276 54.8359 28.7266C53.2344 29.3125 51.5677 29.6055 49.8359 29.6055C48.5078 29.6055 47.2253 29.4297 45.9883 29.0781C44.7643 28.7396 43.6185 28.2578 42.5508 27.6328C41.4831 26.9948 40.5065 26.2396 39.6211 25.3672C38.7357 24.4818 37.9805 23.5052 37.3555 22.4375C36.7305 21.3568 36.2422 20.1979 35.8906 18.9609C35.5521 17.724 35.3828 16.4414 35.3828 15.1133C35.3828 13.7852 35.5521 12.5091 35.8906 11.2852C36.2422 10.0612 36.7305 8.91536 37.3555 7.84766C37.9805 6.76693 38.7357 5.79036 39.6211 4.91797C40.5065 4.03255 41.4831 3.27734 42.5508 2.65234C43.6185 2.02734 44.7643 1.54557 45.9883 1.20703C47.2253 0.855469 48.5078 0.679688 49.8359 0.679688C51.5677 0.679688 53.2344 0.979167 54.8359 1.57812C56.4375 2.16406 57.8893 3.01042 59.1914 4.11719L56.2617 9C55.4154 8.14062 54.4388 7.47005 53.332 6.98828C52.2253 6.49349 51.0599 6.24609 49.8359 6.24609C48.612 6.24609 47.4596 6.48047 46.3789 6.94922C45.3112 7.41797 44.3737 8.05599 43.5664 8.86328C42.7591 9.65755 42.1211 10.5951 41.6523 11.6758C41.1836 12.7435 40.9492 13.8893 40.9492 15.1133C40.9492 16.3503 41.1836 17.5091 41.6523 18.5898C42.1211 19.6706 42.7591 20.6146 43.5664 21.4219C44.3737 22.2292 45.3112 22.8672 46.3789 23.3359C47.4596 23.8047 48.612 24.0391 49.8359 24.0391C50.5391 24.0391 51.2227 23.9544 51.8867 23.7852C52.5508 23.6159 53.1823 23.3815 53.7812 23.082V15.1133H59.1914V26.168ZM85.9102 29H79.9141L69.1133 10.5625V29H63.5078V0.992188H69.5039L80.3047 19.4492V0.992188H85.9102V29ZM96.7305 29H91.125V0.992188H96.7305V29ZM124.348 29H118.352L107.551 10.5625V29H101.945V0.992188H107.941L118.742 19.4492V0.992188H124.348V29Z" fill="black"/>
</svg>
