<svg width="142" height="30" viewBox="0 0 142 30" fill="none" xmlns="http://www.w3.org/2000/svg">
<path d="M0.882812 9.39062C0.882812 8.23177 1.10417 7.14453 1.54688 6.12891C1.98958 5.11328 2.58854 4.22786 3.34375 3.47266C4.11198 2.70443 5.00391 2.09896 6.01953 1.65625C7.03516 1.21354 8.1224 0.992188 9.28125 0.992188H22.1328V6.59766H9.28125C8.89062 6.59766 8.52604 6.66927 8.1875 6.8125C7.84896 6.95573 7.54948 7.15755 7.28906 7.41797C7.04167 7.66536 6.84635 7.95833 6.70312 8.29688C6.5599 8.63542 6.48828 9 6.48828 9.39062C6.48828 9.78125 6.5599 10.1523 6.70312 10.5039C6.84635 10.8424 7.04167 11.1419 7.28906 11.4023C7.54948 11.6497 7.84896 11.8451 8.1875 11.9883C8.52604 12.1315 8.89062 12.2031 9.28125 12.2031H14.8867C16.0456 12.2031 17.1328 12.4245 18.1484 12.8672C19.1771 13.2969 20.069 13.8958 20.8242 14.6641C21.5924 15.4193 22.1914 16.3112 22.6211 17.3398C23.0638 18.3555 23.2852 19.4427 23.2852 20.6016C23.2852 21.7604 23.0638 22.8477 22.6211 23.8633C22.1914 24.8789 21.5924 25.7708 20.8242 26.5391C20.069 27.2943 19.1771 27.8932 18.1484 28.3359C17.1328 28.7786 16.0456 29 14.8867 29H2.44531V23.3945H14.8867C15.2773 23.3945 15.6419 23.3229 15.9805 23.1797C16.319 23.0365 16.612 22.8411 16.8594 22.5938C17.1198 22.3333 17.3216 22.0339 17.4648 21.6953C17.6081 21.3568 17.6797 20.9922 17.6797 20.6016C17.6797 20.2109 17.6081 19.8464 17.4648 19.5078C17.3216 19.1693 17.1198 18.8763 16.8594 18.6289C16.612 18.3685 16.319 18.1667 15.9805 18.0234C15.6419 17.8802 15.2773 17.8086 14.8867 17.8086H9.28125C8.1224 17.8086 7.03516 17.5872 6.01953 17.1445C5.00391 16.7018 4.11198 16.1029 3.34375 15.3477C2.58854 14.5794 1.98958 13.6875 1.54688 12.6719C1.10417 11.6432 0.882812 10.5495 0.882812 9.39062ZM32.582 29H26.9766V0.992188H32.582V29ZM60.082 26.168C58.7799 27.2747 57.3281 28.1276 55.7266 28.7266C54.125 29.3125 52.4583 29.6055 50.7266 29.6055C49.3984 29.6055 48.1159 29.4297 46.8789 29.0781C45.6549 28.7396 44.5091 28.2578 43.4414 27.6328C42.3737 26.9948 41.3971 26.2396 40.5117 25.3672C39.6263 24.4818 38.8711 23.5052 38.2461 22.4375C37.6211 21.3568 37.1328 20.1979 36.7812 18.9609C36.4427 17.724 36.2734 16.4414 36.2734 15.1133C36.2734 13.7852 36.4427 12.5091 36.7812 11.2852C37.1328 10.0612 37.6211 8.91536 38.2461 7.84766C38.8711 6.76693 39.6263 5.79036 40.5117 4.91797C41.3971 4.03255 42.3737 3.27734 43.4414 2.65234C44.5091 2.02734 45.6549 1.54557 46.8789 1.20703C48.1159 0.855469 49.3984 0.679688 50.7266 0.679688C52.4583 0.679688 54.125 0.979167 55.7266 1.57812C57.3281 2.16406 58.7799 3.01042 60.082 4.11719L57.1523 9C56.306 8.14062 55.3294 7.47005 54.2227 6.98828C53.1159 6.49349 51.9505 6.24609 50.7266 6.24609C49.5026 6.24609 48.3503 6.48047 47.2695 6.94922C46.2018 7.41797 45.2643 8.05599 44.457 8.86328C43.6497 9.65755 43.0117 10.5951 42.543 11.6758C42.0742 12.7435 41.8398 13.8893 41.8398 15.1133C41.8398 16.3503 42.0742 17.5091 42.543 18.5898C43.0117 19.6706 43.6497 20.6146 44.457 21.4219C45.2643 22.2292 46.2018 22.8672 47.2695 23.3359C48.3503 23.8047 49.5026 24.0391 50.7266 24.0391C51.4297 24.0391 52.1133 23.9544 52.7773 23.7852C53.4414 23.6159 54.0729 23.3815 54.6719 23.082V15.1133H60.082V26.168ZM86.8008 29H80.8047L70.0039 10.5625V29H64.3984V0.992188H70.3945L81.1953 19.4492V0.992188H86.8008V29ZM114.105 17.8086C114.105 19.3581 113.812 20.8164 113.227 22.1836C112.641 23.5378 111.84 24.7227 110.824 25.7383C109.809 26.7409 108.617 27.5352 107.25 28.1211C105.896 28.707 104.444 29 102.895 29C101.345 29 99.8867 28.707 98.5195 28.1211C97.1654 27.5352 95.9805 26.7409 94.9648 25.7383C93.9622 24.7227 93.168 23.5378 92.582 22.1836C91.9961 20.8164 91.7031 19.3581 91.7031 17.8086V0.992188H97.2891V17.8086C97.2891 18.5768 97.4323 19.2995 97.7188 19.9766C98.0182 20.6536 98.4219 21.2461 98.9297 21.7539C99.4375 22.2617 100.03 22.6654 100.707 22.9648C101.397 23.2513 102.126 23.3945 102.895 23.3945C103.663 23.3945 104.385 23.2513 105.062 22.9648C105.753 22.6654 106.352 22.2617 106.859 21.7539C107.367 21.2461 107.764 20.6536 108.051 19.9766C108.35 19.2995 108.5 18.5768 108.5 17.8086V0.992188H114.105V17.8086ZM124.574 6.59766V17.8086H130.18C130.948 17.8086 131.671 17.6654 132.348 17.3789C133.025 17.0794 133.617 16.6758 134.125 16.168C134.633 15.6602 135.03 15.0677 135.316 14.3906C135.616 13.7005 135.766 12.9714 135.766 12.2031C135.766 11.4349 135.616 10.7122 135.316 10.0352C135.03 9.34505 134.633 8.74609 134.125 8.23828C133.617 7.73047 133.025 7.33333 132.348 7.04688C131.671 6.7474 130.948 6.59766 130.18 6.59766H124.574ZM124.574 29H118.969V0.992188H130.18C131.208 0.992188 132.198 1.12891 133.148 1.40234C134.099 1.66276 134.984 2.04036 135.805 2.53516C136.638 3.01693 137.393 3.60286 138.07 4.29297C138.76 4.97005 139.346 5.72526 139.828 6.55859C140.323 7.39193 140.701 8.28385 140.961 9.23438C141.234 10.1849 141.371 11.1745 141.371 12.2031C141.371 13.7396 141.078 15.1914 140.492 16.5586C139.906 17.9128 139.105 19.0977 138.09 20.1133C137.074 21.1289 135.883 21.9297 134.516 22.5156C133.161 23.1016 131.716 23.3945 130.18 23.3945H124.574V29Z" fill="black"/>
</svg>
